Coordinates
version=1
nRows=7
nColumns=40
inDegrees=yes

Units are S.I. units (second, meters, Newtons, ...)
Angles are in degrees.

endheader
time	pelvis_tilt	pelvis_list	pelvis_rotation	pelvis_tx	pelvis_ty	pelvis_tz	hip_flexion_r	hip_adduction_r	hip_rotation_r	knee_angle_r	knee_angle_r_beta	ankle_angle_r	subtalar_angle_r	mtp_angle_r	hip_flexion_l	hip_adduction_l	hip_rotation_l	knee_angle_l	knee_angle_l_beta	ankle_angle_l	subtalar_angle_l	mtp_angle_l	lumbar_extension	lumbar_bending	lumbar_rotation	arm_flex_r	arm_add_r	arm_rot_r	elbow_flex_r	pro_sup_r	wrist_flex_r	wrist_dev_r	arm_flex_l	arm_add_l	arm_rot_l	elbow_flex_l	pro_sup_l	wrist_flex_l	wrist_dev_l
     22.78500000	     -3.28609724	     -4.89245527	     11.74534054	      0.97858123	      0.91977393	      0.53680433	      5.41305510	      6.28663696	    -17.43174916	     17.90283408	     17.90283408	     18.41013057	     -5.31299556	     -1.93929807	     28.06510482	     -8.90989103	      3.94815236	     17.66097346	     17.66097346	      2.27432779	     -0.90763215	      1.94333983	     -8.78271554	      2.96317470	      6.17293435	     54.13928851	    -15.31957990	      0.62507272	     88.24511112	     44.37715760	      0.00000000	      0.00000000	    -15.56646152	     -9.45037565	     18.40031185	     31.88635742	     44.01301543	      0.00000000	      0.00000000
     22.80907143	     -3.48734976	     -4.98521065	     11.64872321	      0.97870085	      0.91920143	      0.53324195	      5.09453216	      6.22497933	    -17.27846363	     17.60746415	     17.60746415	     18.58866306	     -5.21545136	     -1.92819597	     27.99916794	     -8.78124795	      3.95071597	     17.89746441	     17.89746441	      2.09590916	     -1.13028891	      1.57441243	     -8.60156740	      2.88408065	      6.10867060	     53.68494405	    -14.84885930	      0.86378097	     88.75367091	     44.36036975	      0.00000000	      0.00000000	    -14.99033978	     -9.51729618	     18.44187148	     31.95684758	     44.02956403	      0.00000000	      0.00000000
     22.83314286	     -3.70222859	     -5.00061407	     11.47292521	      0.97893816	      0.91879910	      0.52942291	      4.80285493	      6.04283782	    -17.06591074	     17.39308193	     17.39308193	     18.74387731	     -5.11570877	     -1.93147181	     27.92522965	     -8.59761427	      3.86640446	     18.16622842	     18.16622842	      2.02439887	     -1.32212164	      1.42443253	     -8.43652863	      2.74205832	      6.10037018	     53.37939621	    -14.44964198	      1.07190041	     88.94570058	     44.34860328	      0.00000000	      0.00000000	    -14.33262183	     -9.64074451	     18.41021908	     32.11676646	     44.04669067	      0.00000000	      0.00000000
     22.85721429	     -3.81069006	     -5.04113684	     11.24518596	      0.97959201	      0.91874845	      0.52524594	      4.17360535	      5.93329785	    -16.89476982	     16.78843559	     16.78843559	     18.78320942	     -4.75645653	     -1.85001129	     27.69860774	     -8.39216361	      4.08103891	     18.37337090	     18.37337090	      1.30394984	     -2.38819169	     -0.32572726	     -8.42448405	      2.69255007	      6.47980400	     52.36720716	    -14.66277929	      1.10872506	     91.06781556	     44.32553258	      0.00000000	      0.00000000	    -13.59614749	     -9.81510051	     18.52145257	     32.03782457	     44.11208383	      0.00000000	      0.00000000
     22.88128571	     -4.00315497	     -4.96178099	     10.89190132	      0.98023891	      0.91878756	      0.52090879	      3.74102086	      5.61936281	    -16.60367655	     16.44205857	     16.44205857	     18.79934275	     -4.52277616	     -1.78804803	     27.64796974	     -8.13593754	      3.90232931	     18.88828263	     18.88828263	      1.46655827	     -2.88991612	     -0.53323729	     -8.27598885	      2.50700834	      6.48597674	     51.97327329	    -14.29274403	      1.29290040	     91.09286834	     44.32161190	      0.00000000	      0.00000000	    -13.10843415	    -10.02434768	     18.49024288	     32.13603519	     44.12862272	      0.00000000	      0.00000000
     22.90535714	     -4.13612137	     -4.94408497	     10.51833432	      0.98112090	      0.91905364	      0.51630831	      3.12681317	      5.38300430	    -16.37057497	     15.86807782	     15.86807782	     18.73454830	     -4.06549274	     -1.69023367	     27.58540834	     -7.90010140	      3.96848479	     19.50752424	     19.50752424	      1.69237459	     -3.74048043	     -0.76145120	     -8.18153564	      2.45693362	      6.46154178	     51.58398511	    -14.01946787	      1.41841614	     91.23146058	     44.32051705	      0.00000000	      0.00000000	    -12.71012946	    -10.22000274	     18.45711184	     32.24137529	     44.15006216	      0.00000000	      0.00000000
     22.92942857	     -4.30028280	     -4.84691527	     10.04656558	      0.98196791	      0.91950960	      0.51153996	      2.57286204	      4.99846058	    -16.19423052	     15.36443271	     15.36443271	     18.60736876	     -3.45857979	     -1.63911316	     27.42896817	     -7.57167783	      4.03212489	     19.96854128	     19.96854128	      1.92050659	     -4.83446470	     -0.89364536	     -8.08049016	      2.34315358	      6.55968646	     51.23803160	    -13.81499113	      1.51003794	     91.38961191	     44.32795010	      0.00000000	      0.00000000	    -12.26620728	    -10.45218324	     18.38790673	     32.41779888	     44.18700262	      0.00000000	      0.00000000
